# AST/ASF file generated using VICON BodyLanguage
# -----------------------------------------------
:version 1.10
:name VICON
:units
  mass 1.0
  length 0.45
  angle deg
:documentation
   .ast/.asf automatically generated from VICON data using
   VICON BodyBuilder and BodyLanguage model FoxedUp or BRILLIANT.MOD
:root
   order TX TY TZ RX RY RZ
   axis XYZ
   position 0 0 0  
   orientation 0 0 0 
:bonedata
  begin
     id 1 
     name lhipjoint
     direction 0.690799 -0.707083 0.151096 
     length 2.54797 
     axis 0 0 0  XYZ
  end
  begin
     id 2 
     name lfemur
     direction 0.34202 -0.939693 0  
     length 7.21646  
     axis 0 0 20  XYZ
    dof rx ry rz
    limits (-160.0 20.0)
           (-70.0 70.0)
           (-60.0 70.0)
  end
  begin
     id 3 
     name ltibia
     direction 0.34202 -0.939693 0   
     length 8.16759   
     axis 0 0 20   XYZ
    dof rx
    limits (-10.0 170.0)
  end
  begin
     id 4 
     name lfoot
     direction 0.0487203 -0.133858 0.989802   
     length 1.93375   
     axis -90 7.62852e-016 20   XYZ
    dof rx rz
    limits (-45.0 90.0)
           (-70.0 20.0)
  end
  begin
     id 5 
     name ltoes
     direction 1.53453e-011 -4.21783e-011 1   
     length 0.979747   
     axis -90 7.62852e-016 20   XYZ
    dof rx
    limits (-90.0 20.0)
  end
  begin
     id 6 
     name rhipjoint
     direction -0.694693 -0.703425 0.150315   
     length 2.56122  
     axis 0 0 0  XYZ 
  end
  begin
     id 7 
     name rfemur
     direction -0.34202 -0.939693 0   
     length 7.36786   
     axis 0 0 -20   XYZ
    dof rx ry rz
    limits (-160.0 20.0)
           (-70.0 70.0)
           (-70.0 60.0)
  end
  begin
     id 8 
     name rtibia
     direction -0.34202 -0.939693 0   
     length 8.07288   
     axis 0 0 -20   XYZ
    dof rx
    limits (-10.0 170.0)
 end
 begin
     id 9 
     name rfoot
     direction -0.0428397 -0.117701 0.992125   
     length 1.88295  
     axis -90 -7.62852e-016 -20   XYZ
    dof rx rz
    limits (-45.0 90.0)
           (-20.0 70.0)
  end
  begin
     id 10 
     name rtoes
     direction -1.53456e-011 -4.2187e-011 1   
     length 0.955578   
     axis -90 -7.62852e-016 -20   XYZ
    dof rx
    limits (-90.0 20.0)
  end
  begin
     id 11 
     name lowerback
     direction 0.0288145 0.999398 -0.0193241   
     length 1.92149   
     axis 0 0 0   XYZ
    dof rx ry rz
    limits (-20.0 45.0)
           (-30.0 30.0)
           (-30.0 30.0)
  end
  begin
     id 12 
     name upperback
     direction 0.0233784 0.998099 0.0570278   
     length 1.90435   
     axis 0 0 0   XYZ
    dof rx ry rz
    limits (-20.0 45.0)
           (-30.0 30.0)
           (-30.0 30.0)
  end
  begin
     id 13 
     name thorax
     direction 0.0096694 0.997833 0.0650817   
     length 1.9111   
     axis 0 0 0   XYZ
    dof rx ry rz
    limits (-20.0 45.0)
           (-30.0 30.0)
           (-30.0 30.0)
  end
  begin
     id 14 
     name lowerneck
     direction 0.00516803 0.999916 0.0118722   
     length 1.74664   
     axis 0 0 0   XYZ
    dof rx ry rz
    limits (-20.0 45.0)
           (-30.0 30.0)
           (-30.0 30.0)
  end
  begin
     id 15 
     name upperneck
     direction -0.0510851 0.996117 -0.071696   
     length 1.68498   
     axis 0 0 0   XYZ
    dof rx ry rz
    limits (-20.0 45.0)
           (-30.0 30.0)
           (-30.0 30.0)
  end
  begin
     id 16
     name head
     direction -0.019188 0.999436 -0.0275702  
     length 1.83483  
     axis 0 0 0   XYZ
    dof rx ry rz
    limits (-20.0 45.0)
           (-30.0 30.0)
           (-30.0 30.0)
  end
  begin
     id 17 
     name lclavicle
     direction 0.967006 0.248456 -0.0562957  
     length 3.39395  
     axis 0 0 0   XYZ
    dof ry rz
    limits (-20.0 10.0)
           (0.0 20.0)
  end
  begin
     id 18 
     name lhumerus
     direction 1 -4.48962e-011 -5.62711e-019   
     length 5.24318   
     axis 180 -30 -90   XYZ
    dof rx ry rz
    limits (-60.0 90.0)
           (-90.0 90.0)
           (-90.0 90.0)
  end
  begin
     id 19
     name lradius
     direction 1 -4.48966e-011 7.90625e-027   
     length 2.98999   
     axis 180 -30 -90   XYZ
    dof rx
    limits (-10.0 170.0)
  end
  begin
     id 20
     name lwrist
     direction 1 -4.48959e-011 1.61068e-026   
     length 1.49499   
     axis -9.31229e-015 90 90   XYZ
    dof ry
    limits (-180.0 0.0)
 end
  begin
     id 21 
     name lhand
     direction 1 -4.49017e-011 3.22136e-026   
     length 0.726745   
     axis -2.0555e-014 90 90   XYZ
    dof rx rz
    limits (-90.0 90.0)
           (-45.0 45.0)
  end
  begin
     id 22 
     name lfingers
     direction 1 -4.4898e-011 6.44272e-026   
     length 0.58592   
     axis -4.11101e-014 90 90   XYZ
    dof rx
    limits (0.0 90.0)
  end
  begin
     id 23
     name lthumb
     direction 0.707107 -6.34922e-011 0.707107   
     length 0.841268   
     axis -90 45 2.85299e-015   XYZ
    dof rx rz
    limits (-45.0 45.0)
           (-45.0 45.0)
  end
  begin
     id 24 
     name rclavicle
     direction -0.972232 0.230238 0.0419005   
     length 3.40416  
     axis 0 0 0   XYZ 
    dof ry rz
    limits (-10.0 20.0)
           (-20.0 0.0)
  end
  begin
     id 25 
     name rhumerus
     direction -1 -4.48976e-011 2.48487e-027  
     length 5.37045   
     axis 180 30 90   XYZ
    dof rx ry rz
    limits (-90.0 60.0)
           (-90.0 90.0)
           (-90.0 90.0)
  end
  begin
     id 26 
     name rradius
     direction -1 -4.48942e-011 7.87951e-027   
     length 2.92792   
     axis 180 30 90   XYZ
    dof rx
    limits (-10.0 170.0)
  end
  begin
     id 27 
     name rwrist
     direction -1 -4.48969e-011 1.61068e-026   
     length 1.46396   
     axis -9.31229e-015 -90 -90   XYZ
    dof ry
    limits (-180.0 0.0)
  end
  begin
     id 28
     name rhand
     direction -1 -4.49043e-011 3.22136e-026   
     length 0.784497   
     axis -2.0555e-014 -90 -90   XYZ
    dof rx rz
    limits (-90.0 90.0)
           (-45.0 45.0)
  end
  begin
     id 29
     name rfingers
     direction -1 -4.48823e-011 6.44272e-026   
     length 0.632482   
     axis -4.11101e-014 -90 -90   XYZ
    dof rx
    limits (0.0 90.0)
  end
  begin
     id 30
     name rthumb
     direction -0.707107 -6.34923e-011 0.707107   
     length 0.908121   
     axis -90 -45 -2.85299e-015   XYZ
    dof rx rz
    limits (-45.0 45.0)
           (-45.0 45.0)
  end
:hierarchy
  begin
    root lhipjoint rhipjoint lowerback
    lhipjoint lfemur
    lfemur ltibia
    ltibia lfoot
    lfoot ltoes
    rhipjoint rfemur
    rfemur rtibia
    rtibia rfoot
    rfoot rtoes
    lowerback upperback
    upperback thorax
    thorax lowerneck lclavicle rclavicle
    lowerneck upperneck
    upperneck head
    lclavicle lhumerus
    lhumerus lradius
    lradius lwrist
    lwrist lhand lthumb
    lhand lfingers
    rclavicle rhumerus
    rhumerus rradius
    rradius rwrist
    rwrist rhand rthumb
    rhand rfingers
  end

#!OML:ASF E:\Style6\Style6.ASF
:FULLY-SPECIFIED
:DEGREES
485
root 0.470643 17.152 -0.0718236 13.6517 -8.09281 -3.28893
lowerback 7.08257 -0.254977 1.93355
upperback -7.67928 0.185433 2.73544
thorax -12.311 0.0651444 1.86256
lowerneck -10.0981 1.83273 3.57335
upperneck 14.2917 2.8383 -5.96164
head 6.12627 1.10752 -2.24725
rclavicle 5.96354e-016 -2.98177e-014
rhumerus -20.2386 11.1264 -100.369
rradius 138.053
rwrist 50.2163
rhand 32.1117 -5.11141
rfingers 7.12502
rthumb 55.5948 -22.8109
lclavicle 5.96354e-016 -2.98177e-014
lhumerus -17.1729 -9.39119 96.5511
lradius 123.881
lwrist -30.1981
lhand 12.3395 37.3952
lfingers 7.12502
lthumb 37.3418 63.3706
rfemur -39.0069 -7.57987 23.82
rtibia 44.1528
rfoot -10.7025 7.77846
rtoes 7.78613
lfemur -36.3731 10.4164 -16.6648
ltibia 48.5909
lfoot -18.8101 2.86224
ltoes -19.2319
486
root 0.467818 17.1519 -0.0695592 13.6569 -8.0004 -3.19362
lowerback 7.03 -0.268917 1.86537
upperback -7.68044 0.152774 2.70706
thorax -12.2787 0.0539673 1.87477
lowerneck -10.053 1.83636 3.58667
upperneck 14.2051 2.83894 -5.96618
head 6.09145 1.10994 -2.25056
rclavicle 3.01283e-015 1.43125e-014
rhumerus -20.2022 11.1234 -100.345
rradius 138.026
rwrist 50.163
rhand 32.0283 -5.20305
rfingers 7.12502
rthumb 55.5206 -22.9583
lclavicle 3.01283e-015 1.43125e-014
lhumerus -17.1102 -9.43193 96.5136
lradius 123.871
lwrist -30.1694
lhand 12.1875 37.348
lfingers 7.12502
lthumb 37.198 63.361
rfemur -39.0361 -7.64876 23.7452
rtibia 44.172
rfoot -10.7818 7.75025
rtoes 8.35198
lfemur -36.4137 10.3895 -16.7574
ltibia 48.5956
lfoot -18.7947 2.77525
ltoes -19.0733
487
root 0.464673 17.1507 -0.0668205 13.6296 -7.88223 -3.14376
lowerback 7.01588 -0.270344 1.85752
upperback -7.6854 0.146461 2.67712
thorax -12.2752 0.050025 1.8475
lowerneck -10.0072 1.82726 3.60555
upperneck 14.1516 2.82304 -5.97161
head 6.06614 1.10423 -2.25667
rclavicle 4.14233e-014 -1.07344e-014
rhumerus -20.1739 11.0072 -100.293
rradius 138.008
rwrist 50.1008
rhand 32.0426 -5.13123
rfingers 7.12502
rthumb 55.5334 -22.877
lclavicle 4.14233e-014 -1.07344e-014
lhumerus -17.1183 -9.47571 96.4918
lradius 123.901
lwrist -30.2103
lhand 12.2678 37.2768
lfingers 7.12502
lthumb 37.2739 63.27
rfemur -39.0268 -7.74177 23.713
rtibia 44.2209
rfoot -10.7789 7.71287
rtoes 7.77144
lfemur -36.4063 10.3805 -16.7956
ltibia 48.6025
lfoot -18.7751 2.77875
ltoes -19.5568
488
root 0.462462 17.1496 -0.0641003 13.628 -7.80145 -3.15032
lowerback 7.0029 -0.263443 1.9061
upperback -7.70415 0.161223 2.66697
thorax -12.2891 0.0522314 1.80687
lowerneck -9.93382 1.82949 3.58486
upperneck 14.0865 2.82596 -5.95655
head 6.03264 1.10766 -2.24818
rclavicle 1.54213e-015 7.15625e-015
rhumerus -20.1786 10.926 -100.241
rradius 138.034
rwrist 50.0702
rhand 32.0947 -5.15704
rfingers 7.12502
rthumb 55.5796 -22.868
lclavicle 1.54213e-015 7.15625e-015
lhumerus -17.1273 -9.43877 96.449
lradius 123.931
lwrist -30.2716
lhand 12.4604 37.1425
lfingers 7.12502
lthumb 37.456 63.0877
rfemur -39.0315 -7.81461 23.7474
rtibia 44.2684
rfoot -10.8 7.65244
rtoes 6.52988
lfemur -36.4197 10.3976 -16.7824
ltibia 48.631
lfoot -18.7998 2.74445
ltoes -20.0012
489
root 0.459648 17.147 -0.0634881 13.6486 -7.71296 -3.20642
lowerback 7.00856 -0.23563 1.97367
upperback -7.71711 0.210782 2.68771
thorax -12.3088 0.0711962 1.78335
lowerneck -9.82288 1.81178 3.52651
upperneck 13.9242 2.80951 -5.97618
head 5.96112 1.09882 -2.24576
rclavicle -2.85644e-014 1.78906e-014
rhumerus -20.1757 10.8393 -100.126
rradius 138.053
rwrist 50.1261
rhand 31.9915 -5.17634
rfingers 7.12502
rthumb 55.488 -22.9561
lclavicle -2.85644e-014 1.78906e-014
lhumerus -17.0655 -9.42532 96.4507
lradius 123.927
lwrist -30.255
lhand 12.4193 36.9954
lfingers 7.12502
lthumb 37.4172 62.9509
rfemur -39.0545 -7.83156 23.8302
rtibia 44.3156
rfoot -10.8982 7.61587
rtoes 7.03338
lfemur -36.4968 10.399 -16.7013
ltibia 48.7058
lfoot -18.8246 2.56432
ltoes -19.4813
490
root 0.458044 17.1443 -0.0650532 13.6465 -7.54024 -3.34106
lowerback 7.10202 -0.245915 2.15159
upperback -7.73968 0.230153 2.73899
thorax -12.394 0.0675672 1.73811
lowerneck -9.61107 1.79314 3.45103
upperneck 13.6639 2.78971 -5.98189
head 5.841 1.09134 -2.23632
rclavicle 3.05725e-014 9.93923e-015
rhumerus -20.1941 10.8158 -100.041
rradius 138.076
rwrist 50.2114
rhand 31.9681 -5.09178
rfingers 7.12502
rthumb 55.4671 -22.8871
lclavicle 3.05725e-014 9.93923e-015
lhumerus -17.0601 -9.40993 96.4605
lradius 123.962
lwrist -30.2804
lhand 12.3332 37.0071
lfingers 7.12502
lthumb 37.3358 62.984
rfemur -39.0466 -7.92616 24.0081
rtibia 44.3686
rfoot -10.9911 7.62036
rtoes 8.06433
lfemur -36.5852 10.3843 -16.522
ltibia 48.8212
lfoot -18.8553 2.36173
ltoes -18.7353
